<svg xmlns="http://www.w3.org/2000/svg" width="376" height="376" viewBox="0 0 376 376"><defs><style>.a{fill:#fff;stroke:#b55894;stroke-width:15px;}.b,.c,.d{fill:#061054;}.b{font-size:29px;}.b,.c{font-family:Nunito-Bold, Nunito;font-weight:700;}.c{font-size:87px;}.d{font-size:43px;font-family:Nunito-Black, Nunito;font-weight:800;}.e{fill:#b55894;}.f{stroke:none;}.g{fill:none;}</style></defs><g transform="translate(-1641 -333)"><g class="a" transform="translate(1641 333)"><circle class="f" cx="188" cy="188" r="188"/><circle class="g" cx="188" cy="188" r="180.5"/></g><g transform="translate(1698.919 440.293)"><text class="b" transform="translate(5.081 90.983)"><tspan x="0" y="0">CHOICE AWARDS</tspan></text><text class="c" transform="translate(25.081 178.707)"><tspan x="0" y="0">2020</tspan></text><g transform="translate(-47.919 -13.331)"><text class="d" transform="translate(104.081 53.039)"><tspan x="0" y="0">book</tspan><tspan class="e" y="0">shelf</tspan></text><path class="e" d="M40.168,4.5H12.945A5.437,5.437,0,0,0,7.527,9.945L7.5,53.5l19.057-8.167L45.613,53.5V9.945A5.461,5.461,0,0,0,40.168,4.5Zm0,40.835L26.557,39.4,12.945,45.335V9.945H40.168Z" transform="translate(40.5 9.13)"/></g></g></g></svg>